<svg width="150" height="151" viewBox="0 0 150 151" fill="none" xmlns="http://www.w3.org/2000/svg">
<path d="M83.1562 141.125L75 136.438L93.75 103.625H121.875C124.361 103.625 126.746 102.637 128.504 100.879C130.262 99.121 131.25 96.7364 131.25 94.25V38C131.25 35.5136 130.262 33.129 128.504 31.3709C126.746 29.6127 124.361 28.625 121.875 28.625H28.125C25.6386 28.625 23.254 29.6127 21.4959 31.3709C19.7377 33.129 18.75 35.5136 18.75 38V94.25C18.75 96.7364 19.7377 99.121 21.4959 100.879C23.254 102.637 25.6386 103.625 28.125 103.625H70.3125V113H28.125C23.1522 113 18.3831 111.025 14.8667 107.508C11.3504 103.992 9.375 99.2228 9.375 94.25V38C9.375 33.0272 11.3504 28.2581 14.8667 24.7417C18.3831 21.2254 23.1522 19.25 28.125 19.25H121.875C126.848 19.25 131.617 21.2254 135.133 24.7417C138.65 28.2581 140.625 33.0272 140.625 38V94.25C140.625 99.2228 138.65 103.992 135.133 107.508C131.617 111.025 126.848 113 121.875 113H99.1875L83.1562 141.125Z" fill="#ED711F"/>
<path d="M37.5 47.375H112.5V56.75H37.5V47.375ZM37.5 75.5H84.375V84.875H37.5V75.5Z" fill="#ED711F"/>
</svg>
